<svg xmlns="http://www.w3.org/2000/svg" version="1.1" xmlns:xlink="http://www.w3.org/1999/xlink" xmlns:svgjs="http://svgjs.dev/svgjs" width="1500" height="1500" viewBox="0 0 1500 1500"><rect width="1500" height="1500" fill="#ca3433"></rect><g transform="matrix(0.6666666666666666,0,0,0.6666666666666666,247.76194996492887,70.41568085106411)"><svg viewBox="0 0 104 141" data-background-color="#ca3433" preserveAspectRatio="xMidYMid meet" height="2033" width="1500" xmlns="http://www.w3.org/2000/svg" xmlns:xlink="http://www.w3.org/1999/xlink"><g id="tight-bounds" transform="matrix(1,0,0,1,0.23275720364739527,0.19949999999997203)"><svg viewBox="0 0 103.53448559270518 140.60052000000002" height="140.60052000000002" width="103.53448559270518"><g><svg viewBox="0 0 103.53448559270518 140.60052000000002" height="140.60052000000002" width="103.53448559270518"><g><svg viewBox="0 0 103.53448559270518 140.60052000000002" height="140.60052000000002" width="103.53448559270518"><g><path d="M0 140.601v-140.601h103.534v140.601z" fill="#ffffff" stroke="transparent" stroke-width="0" rx="0%" data-fill-palette-color="tertiary"></path><path d="M3.283 137.317v-134.034h96.968v134.034z" fill="#ca3433" stroke="transparent" stroke-width="0" rx="0%" data-fill-palette-color="quaternary"></path><path d="M9.85 130.751v-120.901h83.835v120.901z" fill="#ffffff" stroke="transparent" stroke-width="0" data-fill-palette-color="tertiary"></path></g><g transform="matrix(1,0,0,1,19.69974,19.69974)" id="textblocktransform"><svg viewBox="0 0 64.13500559270518 101.20104000000002" height="101.20104000000002" width="64.13500559270518" id="textblock"><g><svg viewBox="0 0 64.13500559270518 101.20104000000002" height="101.20104000000002" width="64.13500559270518"><g transform="matrix(1,0,0,1,0,0)"><svg width="64.13500559270518" viewBox="4.58 -33.27 21.08 33.27" height="101.20104000000002" data-palette-color="#ca3433"><path d="M4.58-33.27L13.2-33.27Q25.66-33.27 25.66-23.56L25.66-23.56Q25.66-18.53 22.21-15.8 18.76-13.07 12.36-13.07L12.36-13.07 8.44-13.07 8.44 0 4.58 0 4.58-33.27ZM12.77-29.9L8.44-29.9 8.44-16.41 11.93-16.41Q17.04-16.41 19.36-18.05L19.36-18.05Q21.66-19.72 21.66-23.22 21.66-26.72 19.49-28.31 17.32-29.9 12.77-29.9L12.77-29.9Z" opacity="1" transform="matrix(1,0,0,1,0,0)" fill="#ca3433" class="wordmark-text-0" data-fill-palette-color="quaternary" id="text-0"></path></svg></g></svg></g></svg></g></svg></g><g></g></svg></g><defs></defs></svg><rect width="103.53448559270518" height="140.60052000000002" fill="none" stroke="none" visibility="hidden"></rect></g></svg></g></svg>